# xmcd
#
# Track frame offsets:
#	150
#	13329
#	29793
#	44796
#	63734
#	80760
#
# Disc length: 1303 seconds
#
# Revision: 1
# Processed by: cddbd v1.5.2PL0 Copyright (c) Steve Scherf et al.
# Submitted via: audiograbber 1.83.01
#
DISCID=5c051506
DTITLE=Pretty Tall Cowboy - Pretty Tall Cowboy - Demo
DYEAR=2009
DGENRE=Country
TTITLE0=Honky Tonk Proud
TTITLE1=I Believe In You
TTITLE2=Things I Can't Do
TTITLE3=Walking Away
TTITLE4=Gone Again
TTITLE5=Honky Tonk Wings
EXTD=
EXTT0=
EXTT1=
EXTT2=
EXTT3=
EXTT4=
EXTT5=
PLAYORDER=
